<svg xmlns="http://www.w3.org/2000/svg" width="880" height="240" viewBox="0 0 880 240" font-family="'Segoe UI',Helvetica,Arial,sans-serif">
  <defs>
    <linearGradient id="bg" x1="0" y1="0" x2="0" y2="1"><stop offset="0" stop-color="#171b21"/><stop offset="1" stop-color="#0e1116"/></linearGradient>
    <linearGradient id="steel" x1="0" y1="0" x2="0" y2="1"><stop offset="0" stop-color="#c7ced6"/><stop offset="0.5" stop-color="#8b949e"/><stop offset="1" stop-color="#5a626b"/></linearGradient>
  </defs>
  <rect x="0" y="0" width="880" height="240" rx="30" fill="url(#bg)"/>
  <rect x="1" y="1" width="878" height="238" rx="29" fill="none" stroke="#2a2f37" stroke-width="2"/>
  <!-- anvil only, larger + centered in icon zone -->
  <g transform="translate(48,78) scale(1.7)">
    <path d="M18,26 L86,26 L86,40 L60,40 L60,56 L76,56 L78,66 L22,66 L24,56 L40,56 L40,40 L18,40 L2,33 Z" fill="url(#steel)" stroke="#3a4048" stroke-width="1.3" stroke-linejoin="round"/>
    <rect x="18" y="26" width="68" height="4" fill="#e7edf3" opacity="0.55"/>
    <rect x="30" y="60" width="40" height="3" fill="#000" opacity="0.25"/>
  </g>
  <text x="292" y="128" font-size="66" font-weight="700" letter-spacing="-1"><tspan fill="#eef2f6">Prompt</tspan><tspan fill="#ff7a1a">Forge</tspan></text>
  <text x="294" y="164" font-size="21" font-weight="500" fill="#8b929c" letter-spacing="0.3">AI prompt-injection payloads, forged for Burp</text>
</svg>
